<?xml version="1.0" encoding="utf-8"?>
<!-- Generator: Adobe Illustrator 17.1.0, SVG Export Plug-In . SVG Version: 6.00 Build 0)  -->
<!DOCTYPE svg PUBLIC "-//W3C//DTD SVG 1.1//EN" "http://www.w3.org/Graphics/SVG/1.1/DTD/svg11.dtd">
<svg version="1.1" id="Layer_1" xmlns="http://www.w3.org/2000/svg" xmlns:xlink="http://www.w3.org/1999/xlink" x="0px" y="0px"
	 viewBox="0 0 220.2 220.4" enable-background="new 0 0 220.2 220.4" xml:space="preserve">
<g>
	<polygon fill="#FFFFFF" points="203.3,25.9 194.4,17 178.8,30.2 190.4,41.8 	"/>
	
		<rect x="4" y="199.9" transform="matrix(-0.7071 -0.7071 0.7071 -0.7071 -127.7555 364.6482)" fill="#FFFFFF" width="15.2" height="17.7"/>
	<polygon fill="#FFFFFF" points="189.6,43.1 177.3,30.8 171.3,34 186.5,49.1 	"/>
	<path fill="#FFFFFF" d="M211.8,19.7c1.7-1.7,3.1-3.4,4.2-5.2c3.2-4.9,5.3-12.1,3.4-14.5c-1.5,5.6-3.7,5.8-9.2,7.1
		c-4.3,1-6.8,0.3-10,1.9c-1.8,0.9-4.5,4.5-4.4,6.4l9,9C207.3,23.1,209.4,22.2,211.8,19.7z"/>
	<polygon fill="#FFFFFF" points="206.3,193.9 122.6,110.3 153.9,79 185.2,50.6 169.9,35.2 141.4,66.5 110.2,97.8 79,66.6 66.5,79.1 
		97.7,110.3 13,194.9 25.5,207.4 110.2,122.8 193.8,206.4 	"/>
	
		<rect x="21.1" y="17.3" transform="matrix(-0.7071 0.7071 -0.7071 -0.7071 66.1481 27.576)" fill="#FFFFFF" width="12.6" height="20.4"/>
	
		<rect x="11.6" y="11.3" transform="matrix(-0.7071 0.7071 -0.7071 -0.7071 37.8252 15.8442)" fill="#FFFFFF" width="8.2" height="8.9"/>
	
		<rect x="198.6" y="200" transform="matrix(-0.7071 -0.7071 0.7071 -0.7071 207.3642 501.0474)" fill="#FFFFFF" width="17.7" height="15.2"/>
	
		<rect x="45.8" y="35.3" transform="matrix(-0.7071 0.7071 -0.7071 -0.7071 136.3908 56.6715)" fill="#FFFFFF" width="21.4" height="42.5"/>
	
		<rect x="27.2" y="34.8" transform="matrix(-0.7071 0.7071 -0.7071 -0.7071 91.6059 38.1209)" fill="#FFFFFF" width="21.4" height="6.5"/>
	
		<rect x="-0.4" y="5.7" transform="matrix(0.7071 0.7071 -0.7071 0.7071 6.3548 -2.5591)" fill="#FFFFFF" width="13.3" height="1.3"/>
</g>
</svg>
