<?xml version="1.0" encoding="utf-8"?>
<!-- Generator: Adobe Illustrator 17.1.0, SVG Export Plug-In . SVG Version: 6.00 Build 0)  -->
<!DOCTYPE svg PUBLIC "-//W3C//DTD SVG 1.1//EN" "http://www.w3.org/Graphics/SVG/1.1/DTD/svg11.dtd">
<svg version="1.1" id="Layer_1" xmlns="http://www.w3.org/2000/svg" xmlns:xlink="http://www.w3.org/1999/xlink" x="0px" y="0px"
	 viewBox="0 0 441.6 507.8" enable-background="new 0 0 441.6 507.8" xml:space="preserve">
<g id="_x39_R1kj8_1_">
	<g>
		<path d="M276.1,157c-0.6-18.6-1.2-36.9-1.9-55.2c-0.1-1.6-1.1-3.4-2.2-4.7c-1.7-1.8-3.8-3.2-5.7-4.9c-4.6-4.1-5.9-10.4-3.6-16.4
			c2.4-6.3,6.2-9.3,11.6-9.2c5.7,0.1,11.7,4,13.4,9.5c2.3,7.6,1,18.9-9.8,22.3c0,14.2-0.1,28.2,0.1,42.1c0.1,4.8,0.5,9.7,1.6,14.3
			c0.4,1.8,2.4,3.8,4.2,4.8c8.5,4.8,17.2,9.3,25.9,13.9c0.6,0.3,1.3,1.2,1.6,1c7.9-3.5,14.5,2.9,22.2,3c10.7,0.1,21.7,3.3,32,7
			c20.2,7.3,34.1,22.7,46.1,39.8c2.9,4.2,4.2,9.7,5.8,14.7c1.5,4.8,2.4,9.8,3.8,14.7c0.3,1,1.9,1.8,3,2.3
			c8.7,4.3,14.1,11.6,17.1,20.5c0.8,2.3,0.4,6.6-1.2,7.7c-3.3,2.3-7.3,0.9-9.5-2.5c-3.4-5.3-6.3-10.9-9.5-16.4
			c-0.9-1.7-1.9-3.3-4-4.5c0.3,1.3,0.6,2.7,0.8,4c0.9,5.5,2.2,11.1,2.5,16.7c0.2,3.4-2.2,5.8-6,5.9c-3.8,0-7-2.9-6.9-6.4
			c0.1-2.5,0.8-4.9,1.1-7.4c0.2-1.7,0-3.4,0-5.3c-6.5,0.8-7.3,5.6-8.2,9.5c-1.1,5.3-5.1,7.5-8.9,10c-0.8,0.5-3.7-0.8-4.3-2
			c-2.4-4.8,2.1-21,7.6-23.3c1.8-0.8,3.3-2.2,4.9-3.4c1.8-1.4,4.4-2.5,5.2-4.3c0.5-1.1-2.2-3.2-2.9-5.1c-0.6-1.6-0.6-3.5-0.9-5.7
			c-0.9-0.3-2.1-0.7-3.5-1.1c2.7-4.8,2.4-5.4-1.4-6.1c-1.3-3.8-2.3-7-3.5-10.6c-2.3,1-3.6,1.6-6.3,2.7c5-7.1-0.6-9.5-3.5-13.3
			c-1.5,0.5-2.9,1-5.3,1.8c4.1-6.9-1.6-7.9-4.8-10.9c-1.2,2.2-2.2,4.1-3.3,6.1c-0.5,0.1-0.9,0.2-1.4,0.3c1.6-5.5,1.8-10.3-4.7-12.2
			c-0.6,1.1-1.3,2.2-3,4.9c0.4-6.6-2.3-9.2-7.3-10.1c-0.3,1.1-0.7,2.3-1.1,3.5c-8-3.9-8-3.9-8.6-2.9c-1.3-1.2-2.5-3.1-4.1-3.5
			c-1-0.3-2.6,1.5-4.1,2.4c-0.8-1-1.8-2.4-2.9-3.7c-0.4,0.2-0.8,0.5-1.2,0.7c0.8,1.4,1.4,2.9,2.4,4.1c10.6,13.2,17.3,28.3,22.2,44.4
			c1.3,4.2-0.1,6.5-3.4,8.1c-10.9,5.4-21.8,10.7-32.8,15.9c-3.7,1.8-8.8,2.2-11.1,5c-2.5,3.1-2.7,8.1-3.5,12.4
			c-0.6,3.5-0.7,7.2-0.7,10.8c0,2.2,1.1,4.4,1.1,6.6c0,1.4-1.4,2.9-1.5,4.3c-0.2,6.3-0.2,12.7-0.3,19c-0.1,4.9-0.1,9.8-0.2,14.7
			c-0.1,5.7-0.4,11.3-0.3,17c0,1.6,1,3.3,0.8,4.7c-0.5,3.5-1,7-1.5,11c2.3-0.3,3.4-0.4,5.3-0.6c-8.7,8.5-2.7,18.6-4.4,27.5
			c-0.2,1.1,1.1,2.6,0.5,3.7c-0.3,4.2-0.5,8.4-0.8,12.5c0.5,0,1.1,0.1,1.6,0.1c-4.4,5.1-3.1,11.3-3.4,17.1c-0.2,3.7,0,7.4-0.4,11.1
			c-0.6,5.2,0.3,9.7,3.9,13.9c2.9,3.3,4.9,7.3,7.3,11c0.1,0.1,0.3,0.3,0.2,0.4c-2.6,5.3,1.5,7.6,4.8,9.8c3.6,2.4,7.3,4.7,11.3,6.2
			c4.8,1.7,10,2.4,15,3.6c6.8,1.6,13.6,3.1,20.2,5.1c1.6,0.5,3.7,2.8,3.8,4.4c0.2,2.3-0.6,5.6-2.2,7c-4.9,4.3-11.2,4.7-17.4,3.8
			c-12.3-1.9-24.6-4-36.8-6.2c-6.2-1.1-12.8-1.8-18.4-4.4c-3.5-1.6-5.7-6.4-8.3-9.9c-1.9-2.6-3.5-5.5-5.2-8.3
			c-3.3-5.4-2.6-11.3-0.1-16.3c2.6-5.2,2.7-10.1,1.9-15.4c-0.4-2.9-0.3-4.5,2.9-3.8c-1.2-55.7-2.4-111.2-3.6-167.1
			c-6.1,0.6-11.7,1.1-17.3,1.5c-2.8,0.2-5.7,0.5-8.5,0.2c-4-0.4-6.6-0.5-3.2,4.3c0.3,0.4,0.3,1.4,0,1.7c-5.2,4.6,0.8,3.1,2.6,4.4
			c-5.2,2.8-3.4,7.2-2.9,11.4c0.6,5.9,1.1,11.8,1.7,18.1c1.6-0.8,2.7-1.5,4.8-2.6c-0.6,1.7-0.6,3-1.1,3.3c-4.6,2.3-4.4,6-3.3,10.1
			c1.1,4.2,2.3,8.4,3,12.7c0.3,2.4-0.7,5-0.7,7.5c0.1,4.6,0.4,9.2,1,13.7c0.2,1.2,1.6,2.3,2.6,3.6c-4.9,5.4-1.6,11.9-1.1,18.1
			c0.1,1.6,0.1,2.7-0.1,4.2c-0.5,4.7-1.8,10,2,14.3c-3,3.9-2.1,22.1,1.3,25.7c-2.8,4-0.9,7.9-0.4,12.1c1.3,10.8,2.3,21.8,2.1,32.6
			c-0.1,4.3-5,6.6-9.7,7.2c-1.5,0.2-3,0.7-4.2,1.6c-8,5.8-15.3,13-24.1,17.1c-10.5,4.9-21.5,10.3-33.7,9.7
			c-7.2-0.4-14.4-1.7-21.6-2.9c-1.5-0.2-3-1.5-4-2.8c-2.9-3.6-1.9-6.1,2.5-7.6c18.4-6.2,36.7-12.6,55.2-18.8
			c7.2-2.4,9.8-9.1,13.9-14.3c0.4-0.5,0.2-1.6,0.2-2.4c-1.6-28.7-3.1-57.5-5-86.2c-1.6-23.7-3.6-47.4-5.4-71.1
			c-0.6-7.8-1-15.6-1.3-23.4c-0.1-2.6-1.2-3.1-3.6-3.5c-18.7-3-36.4-8.7-52.1-19.8c-3.1-2.2-4.3-4.8-4-8.4c1.1-13.2,2.4-26.4,8-37.3
			c-1.2-2.8-1.8-4.7-2.8-6.3c-0.7-1.1-2.3-2.7-3.2-2.6c-8.4,1.3-15.7,4.8-22,10.6c-4.8,4.5-10.4,8.4-14.4,13.5
			c-5,6.3-9.2,13.4-13,20.5c-5.9,11.3-11,22.9-16.6,34.4c-1.7,3.5-3.8,6.8-5.1,10.4c-0.5,1.6,0.4,3.9,1.2,5.6
			c2.5,5.3,3.6,10.8,2.2,16.5c-0.4,1.7-1.1,3.6-2.3,4.8c-1.1,1.2-3.2,2.4-4.5,2.1c-1.3-0.3-2.7-2.4-3.1-4c-0.7-2.7-0.8-5.6-1.1-8.4
			c-0.3-2.6-0.6-5.2-1-8.2c-6.7,2.5-6.2,9-9.4,13c-1.7,2.2-4.6,4.6-7.1,4.8c-1.7,0.1-4.8-3.1-5.3-5.3c-1-4.6,0.4-8.8,4.9-11.5
			c3-1.8,5.8-4.1,9.1-6.5c-3.4-3.1-6.6-3.3-9.8-2.1c-3.5,1.4-6.9,3.2-10.3,5c-3.6,1.9-6.7,1.8-9-2c-2.2-3.7-2.4-7.5,1.7-9.4
			c4.9-2.2,10.1-3.8,15.4-4.8c4.8-0.9,9.8-0.1,13.2-5.2c1.1-1.6,4.7-1.6,6.3-2.1c4.4-9.5,8.9-18.7,13-28.2c0.9-2,0.4-4.5,0.6-6.8
			c4.2,0.2,9.3-7.2,8.3-12c2-1.4,4-2.3,5.4-3.9c2.9-3.2,5.6-6.7,8.3-10.1c7.7-9.6,19.1-14.1,29-20.4c7.7-4.9,16.4-6.5,25.1-2.4
			c4.7,2.2,7.5,1.5,10.8-2.8c6.5-8.6,15.2-14.7,25.4-18.6c3.7-1.4,8.7-2.1,10.7-4.8c1.9-2.6,0.7-7.5,0.7-11.3
			c0-15.8-0.1-31.6,0-47.4c0-3.4-1.1-6-4.3-7c-10.1-3.4-9.4-19.6-2-25.2c1.3-1,3.4-1.6,5-1.4c9.5,1.2,16.2,9.1,16.2,18.6
			c0,4.7-2.8,8.5-8.8,10c-3.4,0.9-3.8,2.4-3.8,5.5c0.3,15.3,0.3,30.6,0.4,45.9c0,2-0.1,4,0.2,6c0.5,3.2,1.7,4.8,5.7,3.8
			c12-2.8,24-5.4,36.4-3.2C272.3,156.6,274.1,156.7,276.1,157z M260.3,157.7c-5.9,0.8-12,1-17.8,2.4c-21.1,4.9-41.7,10.8-54.3,30.6
			c-4.9,7.7-9.3,15.7-13.8,23.7c-0.8,1.5-1.7,4.2-1,5.2c3.3,4.6,0.3,8-1.3,11.9c-1.4,3.5-2.5,7.2-3.4,10.9c-1.2,5.3,0.7,9.7,5.6,12
			c10.3,4.9,20.5,10.3,31.3,13.7c8.2,2.5,17.3,2.2,26,3c10.7,0.9,21.4,2.5,32,2.3c9-0.2,18-2.3,26.9-3.7c3.4-0.6,6.7-1.9,10.1-2.6
			c1.8-0.4,3.8,0.4,5.5-0.2c5.2-1.7,10.5-3.3,15.4-5.7c9.6-4.6,18.9-9.6,28.3-14.6c2.9-1.5,4-3.8,2.7-7c-3.6-8.8-6.4-17.9-10.8-26.2
			c-8.2-15.7-20.5-28-34.9-38.3C293,164.9,277.9,158.2,260.3,157.7z M286.5,481.1c1,8.5,6.1,13.5,13.9,14.6c8.1,1.1,16.1,2,24.2,3.4
			c7.4,1.2,14.6,3.4,22,4.3c4.6,0.6,9.5-0.1,14.2-1c1.5-0.3,3.2-2.9,3.4-4.6c0.2-1.2-1.9-2.8-3.2-4c-0.8-0.7-2.1-1-3.2-1.3
			c-4.8-1.2-9.6-2.7-14.5-3.4c-14-2-26.6-7-36.8-17.6C301.3,478.1,298.1,487.9,286.5,481.1z M167.5,498.2c1.3,1.4,2.2,3.5,3.7,3.9
			c11.7,3.2,23.7,4,35.3,0.1c11.3-3.8,22.6-7.9,31.9-15.7c2.5-2.1,5.1-4.1,7.2-5.8c-4.3-3.4-7.8-6.2-10.5-8.3
			C213.9,483.8,190.3,488.5,167.5,498.2z M99.5,252.3c-4.9,7.7-2.7,12.6,5.8,13.8c1.6-2.7,3.3-5.3,4.6-8c2.9-6.1,5.4-12.4,8.4-18.5
			c3.7-7.4,3.9-7.3-3.5-11c-0.4-0.2-0.9-0.1-1.9-0.2c-2,3.2-4.1,6.4-6.2,9.7c2,1.5,3.5,2.6,4.9,3.7c-4.8-0.9-8,0-9.7,4.9
			c-2,5.7,5.1,3.2,5.9,7.3C104.9,253.3,102.4,252.8,99.5,252.3z M284.6,76c-1.7-3.6-4.9-6.1-9.6-6.5c-5.7-0.5-9.4,3.2-10.7,10.2
			c-1,5.3,2.6,10.8,8.1,12.8c2.1,0.8,4,1.9,6.6,3.2c0.9-0.8,2.9-1.9,4-3.6c0.6-1,0.4-3.7-0.3-4.3c-2.5-1.7-5.1-3.5-3.9-6.6
			C279.7,79.2,282.4,77.9,284.6,76z M391.4,219.4c1.6-2.5,3.1-4.7,4.5-6.9c0.5,0.2,1,0.5,1.5,0.7c-1.3,2.9-2.6,5.8-3.6,8
			c1.6,3.5,3,6.4,4.6,9.9c2.6-2.9,4.7-5.3,6.8-7.7c0.5,0.3,1,0.6,1.5,1c-1.4,2.1-2.6,4.5-4.3,6.2c-2.8,2.8-2.5,4.9,1.8,8.2
			c1.7-2.3,3.5-4.6,4.9-6.4c1.4,1.9,2.7,3.7,3.9,5.5c-2.1-15.6-14.2-24.1-23.5-34.6C383,212.6,383,213.2,391.4,219.4z M408.9,262.6
			c3.8,1.9,3,5.5,2.9,8.7c0,2.8-1.1,5.7-0.9,8.4c0.2,1.6,2,3.1,3.1,4.6c1.2-1.5,3.2-2.9,3.5-4.6c0.5-2.5,0.7-5.7-0.4-7.9
			c-2.5-5.2-0.8-12.2-6.9-15.8c-0.2-0.1-0.6,0.1-1,0.1c-0.4,1.3-0.9,2.7-1.3,3.9c-6.7-1.3-10.8,3-13.9,7.1c-3.8,5-5,11.3-3.4,19.2
			c3-4,5.9-6.6,7-9.8C399.8,270.5,403.1,265.9,408.9,262.6z M233.1,77.4c-2-3-8.2-6.8-10.5-4.9c-2.8,2.2-5.3,5.9-6.1,9.4
			c-1.6,6.9,1.4,10.4,11.5,14.1c2.1,0.8,5.3-1.3,6.8-1.7c-2.3-4.2-4.8-7.3-5.7-10.9C228.6,82,231.5,79.7,233.1,77.4z M283,460
			c-4.4,5.8-2.7,10.5,0.6,15.7c3.7,5.8,11.7,7,15.5,1.2c2.3-3.6,3-8.3,5.2-12c2.3-3.8,0.9-5.9-2.5-8.8c0.5,8.3-4.8,11.9-10.5,13.2
			C285.2,470.7,285.7,463.6,283,460z M236.5,427.5c1.2,4.5,2.4,8.9,3.6,13.4c1.5,5.8,10,9.2,15,5.9c1.2-0.8,2.6-2.5,2.5-3.8
			c0-3.7-0.8-7.3-1.2-11.2c-9.8,4.6-14.6,4.2-16.5-1.1c12.2,1.1,12.2,1.1,14.9-2.9c-3.1,0.6-5.8,1.5-8.5,1.5
			C243.4,429.2,240.6,428.3,236.5,427.5z M230.7,308c0,3.4-0.2,6.1,0,8.7c0.8,11.4,5,15.6,16.4,16.5c1.2,0.1,3.3-1,3.5-2
			c1.2-4.8-1.3-8.7-5.8-10.3c-1.8-0.6-3.6-1.8-4.9-3.2C236.8,314.9,234,311.7,230.7,308z M94.9,317.3c6.1-9.4,2.3-16.8-1.2-24.1
			c-3,0-5.8,0-8.6,0c-0.8,0-1.7-0.1-2.3,0.3c-3.5,2.5-7.2,4.8-10.1,7.9c-1.9,2-2.9,5.1-3.3,7.8c-0.2,1.4,1.9,3.1,2.9,4.7
			c1.3-1,3.2-1.8,3.9-3.1c1.8-3.5,2.5-7.7,4.8-10.9c1.5-2.2,4.9-3.1,7.5-4.5c1,1.9,2.6,3.7,3,5.7c0.7,3.2,0.6,6.6,1.2,9.9
			C92.9,312.8,93.8,314.5,94.9,317.3z M285.2,382.8c0.2,2.5,0.3,5.6,0.6,8.7c0.1,1.1,1,3,1.3,3c5-0.6,5.5,3.7,7.5,6.4
			c0.6,0.8,2.4,1.4,3.3,1.1c1.1-0.4,2.4-1.8,2.5-3c0.5-4.1,0.6-8.3,0.6-12.4c0-3-1.4-4.4-4.8-4C292.8,383.1,289.3,382.8,285.2,382.8
			z M242.8,461.5c6-1,11.2-0.9,15.3-3c1.6-0.8,0.7-6.5,1-9.9c-7.8,5-14,0.5-21.1-1.6c0.6,4.2,1,7.7,1.6,11.7c2-1.5,3.2-2.3,4.9-3.6
			C243.9,457.1,243.6,458.3,242.8,461.5z M252.4,348c-8.2,5.2-12.9-2.8-19.3-4.4c-0.2,12.8,6.5,17.4,20.2,14.2
			C253.1,355,252.8,352.1,252.4,348z M235.5,370.1c-0.8,6.8,4.4,14,11.2,15.6c1.6,0.4,3.3,0.7,4.9,0.4c1-0.2,2.6-1.4,2.7-2.3
			c0.3-3.6,0.1-7.3,0.1-12.3C246.3,378,240.9,374,235.5,370.1z M79.1,285.7c-0.6-0.8-2-4.1-3-4c-6.6,0.7-13.3,1.9-19.8,3.6
			c-2.6,0.7-4.1,3.5-2.5,6.6c1.7,3.2,4.1,1.9,6.4,1C66.3,290.5,72.3,288.2,79.1,285.7z M284.7,343.3c-0.6,8.6,5.2,14.6,15.6,15
			c0-4.7,0-9.3,0-13.1C294.9,344.6,290,344,284.7,343.3z M233.8,358.9c0.2,5.6,4.3,11.9,9.9,13c2.6,0.5,6.2-0.6,8.4-2.3
			c1.4-1,1.2-4.4,1.1-6.7c0-0.5-2.9-1-4.4-1.3C243.8,360.6,238.9,359.8,233.8,358.9z M301.7,315c-0.5-0.4-0.9-0.8-1.4-1.2
			c-5.7,8-10.9,2.3-16.6-0.4c0.1,5.3-1.6,11.2,4.1,13.1c3.6,1.2,8.9,0.3,12.2-1.7C301.8,323.6,301.2,318.4,301.7,315z M419.9,257
			c2.4,4.8,3.9,8.3,5.8,11.6c2.3,4,4.8,8,7.6,11.7c0.9,1.1,3.1,1.2,4.7,1.8c0.4-1.5,1.5-3.2,1-4.4
			C435.7,268.8,430.4,261.5,419.9,257z M233.1,339.6c0.5-0.4,1-0.7,1.6-1.1c1.1,0.4,2.6,0.5,3.3,1.3c1.4,1.4,2,3.5,3.4,4.8
			c3.5,3.4,9,2.4,10.2-1.9c0.5-1.9-0.1-4.2-0.2-5.4c-6.7-2-12.8-3.8-19.3-5.7C232.4,334.2,232.7,336.9,233.1,339.6z M285.6,413.5
			c0.2,3.5,0.1,6.7,0.7,9.7c0.4,2,1.4,5,2.7,5.3c2.3,0.5,5.9,0.2,7.3-1.3c1.9-2,2.3-5.5,2.8-8.4c0.1-0.4-3.1-1.4-4.8-2.1
			C291.6,415.6,288.8,414.7,285.6,413.5z M284.4,332c-1.1,4.9,2.3,7.8,5.4,9.3c2.5,1.2,8,0.8,9-0.8c2.1-3.3,2-8,2.8-12.1
			c-0.5-0.3-1.1-0.6-1.6-0.9C295.6,331.7,290.8,334.1,284.4,332z M254.3,389c-0.4,0.4-0.8,0.7-1.2,1.1c-5.8-2.1-11.6-4.2-18.6-6.7
			c1.3,3.7,1.5,8.8,3.8,10.1c4.8,2.7,10.7,5.9,16.6,0.6C254.7,392.5,254.5,390.8,254.3,389z M285.4,356c-1.4,7.7,5.7,15.5,15,15.7
			c0-2.5,0.2-5-0.1-7.4c-0.1-1.1-1-2.5-1.9-2.9C294.1,359.4,289.7,357.7,285.4,356z M300.5,406.6c-5.6-3-10.1-5.4-14.7-7.9
			c-1,10.7,4.4,16.5,14,15.1C300,411.2,300.3,408.4,300.5,406.6z M249.1,319.1c0-3.2,0.1-6.5-0.1-9.7c0-0.8-0.7-2.2-1.3-2.4
			c-4-1.1-8.1-2-12.2-3C235.7,311.6,242.1,318.8,249.1,319.1z M289.1,467.5c8.5-3.6,9.7-5.8,7.6-12.7c-3.8-0.5-7.7-1-13-1.6
			C285.9,459.1,287.5,463.3,289.1,467.5z M301.3,291.5c-7.1,3.2-12.3-0.3-17.5-4.1c-0.9,8.8,7.5,14.6,17.5,12.1
			C301.3,297,301.3,294.5,301.3,291.5z M248.6,300.8c-0.5-9.2-0.6-9.9-6.3-8.7c-2.6,0.5-5.2,3.8-6.8,6.5c-1,1.6,6.7,5.8,10.7,5.2
			C247.5,303.6,248.3,301.2,248.6,300.8z M133.9,205.1c-1.7,1.3-3.2,2.2-4.5,3.5c-1.3,1.2-2.3,2.7-3.4,4.1c4.9,6.9,6.4,7.3,11.5,3.2
			C141.2,212.7,141.2,212.7,133.9,205.1z M123.5,215.1c-2.1,2.7-3.8,5.2-5.8,7.3c-1.8,1.9-2,3.6,0.3,4.8c2.1,1,4.2,4.2,6.9,1.1
			c1.9-2.2,3.7-4.6,5.8-7.4C128.3,219,126.2,217.3,123.5,215.1z M381.9,209.9c6-10.4,6-10.7-3.7-15.6
			C372.5,201.6,372.7,202.5,381.9,209.9z M285.8,368.7c-1.5,8.9,2.4,12,15.2,11.1c-0.7-1.9-0.8-4.4-2-5
			C294.7,372.4,290.2,370.6,285.8,368.7z M148.7,195.8c-4.1,2.8-7.8,5.1-10.9,8c-0.4,0.4,2.8,4.4,4.5,7c3.3-3,5.9-5.3,8.8-7.8
			C150.5,201.1,149.8,199.2,148.7,195.8z M94.9,264.3c-4.9,8.8-4.7,9.2,5.4,13.4C106.1,268.4,105.7,270.5,94.9,264.3z M255.1,420.2
			c-6.2-0.4-12.1-0.9-17.9-1.3c-0.3,4.2,2.2,7.1,7.4,7.5C249.6,426.9,254.8,423.5,255.1,420.2z M355.6,183.3c-3.3,8.4-2.3,10.3,6,12
			C366,186.7,368.2,187.3,355.6,183.3z M371.2,201.4c5.3-9.8,5.3-10-3.4-12.8C363.2,197.3,363.2,197.3,371.2,201.4z M287.3,442.2
			c0,1.9-0.6,4,0.1,4.7c1.9,2,4.3,3.6,6.7,5c0.7,0.4,3.1-0.5,3.2-1.1c0.4-2.5,0.5-5.2,0.1-7.7c-0.1-0.4-3.2-0.3-4.9-0.4
			C290.9,442.6,289.3,442.4,287.3,442.2z M85.6,275.5c-0.7-0.1-1.3-0.3-2-0.4c-0.8,2.3-2.7,5-2.2,7c0.8,3.1,3,6.1,5.3,8.4
			c0.8,0.8,3.8-0.5,5.7-1.2c0.7-0.3,1-1.8,1.5-2.7c-0.8-0.3-1.6-0.7-2.4-0.8c-2.2-0.4-4.4-0.6-5.8-0.8
			C85.6,281.4,85.6,278.5,85.6,275.5z M237.9,464.5c-0.9,5.6,3.3,11.7,8.5,11.6c1.7,0,3.4-2.9,5.1-4.6
			C246.2,468.8,242.2,466.8,237.9,464.5z M255.1,413.9c-6.8-1.4-12.4-2.6-18.1-3.8c-1.8,4.2,2.8,5.4,4.9,6c3.9,1.1,8.3,0.6,12.5,0.4
			C254.8,416.5,255.1,414,255.1,413.9z M284.4,308.3c1.7,4.1,7,8,10.3,6.8c3.2-1.2,5.6-3.5,5.8-6.8
			C294.8,308.3,289.7,308.3,284.4,308.3z M161.2,190.7c-9.1,2.1-11,5.1-7.1,10.6C162.3,198.1,162.4,198,161.2,190.7z M350.7,191.1
			c2.7-9.1,2.7-9.2-5.6-9.5C342.9,189.5,343.3,190.1,350.7,191.1z M254.5,398.7c-4.3,0-7.9,0-11.5,0c1.2,5.1,3.9,7.5,7.7,6.5
			C254.1,404.3,256.1,402.4,254.5,398.7z M237.5,395.7c-1.5,5.3-1.6,8.5,2,11.3c3.2,2.6,7.4,3.7,12.4,1.7
			C243.1,408.4,241.1,401.9,237.5,395.7z M411.4,248.4c3.9-6.3,3.8-6.8-3-11.2C404.2,242.1,404.7,244.2,411.4,248.4z M253.3,477.1
			c7.9-4.1,9.3-7.1,6.1-13C257.2,468.3,251.6,470.5,253.3,477.1z M283.9,298.9c-1.3,3.5,1.3,5,3.9,6.3c4,2,7.9,2,11.5-1.2
			C294.1,302.3,289.2,300.6,283.9,298.9z M297.8,440c0.2-0.5,0.5-1,0.7-1.4c-3.7-2.4-7.3-4.8-11.7-7.6c0.2,3.4,0.3,6,0.4,9
			C291,440,294.4,440,297.8,440z M325.3,179.9c1.7,3,2.9,5.5,4.6,7.6c0.6,0.7,2.3,1,3.4,0.7c0.5-0.1,1-1.9,0.9-2.8
			C333.5,180,332,179,325.3,179.9z M416.2,244.4c-2.3,13.7-7.8,3.5-12.5,4c3.4,2.4,6.7,4.8,10.1,7.1
			C419.2,250.9,419.2,250.9,416.2,244.4z M336.6,180.3c0,8.8,0.1,8.9,4.5,9C342.8,180.9,342.8,180.9,336.6,180.3z M255.5,464
			c-4.6-0.5-8.9-0.9-13.3-1.3C245.7,468.3,252.4,469,255.5,464z M181.8,193.3c-8.1,4-9.4,7.3-5.4,10.5
			C178.2,200.3,180,196.8,181.8,193.3z M98.4,280.1c-2.7-1.3-5.5-2.5-8.8-4.1C89.8,283,92.2,284.2,98.4,280.1z M172.7,190
			c-3.3,0-5.5,0-8.4,0c0.2,2.4,0.4,4.7,0.7,8.3C168.1,195,170,192.9,172.7,190z M289.9,285.2c-0.1,0.7-0.1,1.3-0.2,2
			c4.4,4.2,7,4.2,10-0.7C296.2,286.1,293.1,285.7,289.9,285.2z M324.2,186.1c0.4-0.4,0.9-0.8,1.3-1.3c-2.7-2.9-5.3-5.7-8-8.6
			c-0.6,0.6-1.2,1.2-1.8,1.8C318.5,180.7,321.3,183.4,324.2,186.1z M302.7,278.5c-0.5-0.2-1.1-0.4-1.6-0.7c-1.7,1.2-3.4,2.5-5.1,3.7
			c0.1,0.5,0.1,1.1,0.2,1.6c1.6,0.1,3.8,0.9,4.8,0.1C302.1,282.4,302.2,280.1,302.7,278.5z"/>
		<path d="M156,155.6c-3.3,2.1-6.3,4.8-9.8,6.2c-7.2,2.8-14.8,4.8-22.1,7.5c-6.3,2.3-12.6,4.8-18.7,7.6c-8.3,3.8-16.3,2.6-24.7,0.1
			c-11.2-3.3-19.2-11.1-27.4-18.5c-15.2-13.9-28.7-29.2-37.4-48.2c-3.7-8-6-16.3-6.4-25.4c-0.3-6.7,1.6-12.5,2.8-18.7
			c0.5-2.3,0.7-4.7,0.3-7.2c-6.2,14.2-12,28.6-8.4,44.6c3.5,15.6,12.2,28.3,23.7,39.2c-9-4-14.5-11.5-19.3-19.3
			c-7.4-12-10.1-25-8.1-39.2C3.2,65.6,11.2,49.6,22.4,35c8.9-11.7,19.7-21.4,33-28c13.7-6.8,28.4-7.8,43.3-6.5
			c9.6,0.8,19.1,2.2,28.6,3.6c19.7,2.9,33.6,14.2,43.8,30.7c9.4,15.4,17.7,31.5,20.5,49.4c3,19-1.3,36.6-14,51.6
			c-4.5,5.4-9,10.9-14,15.9c-2,2-5.2,2.7-7.8,4c6-6.2,12.4-11.9,17.8-18.5c16.5-20.4,19.5-43.3,10.4-67.5
			c-4.5-12.1-10.4-23.8-17-34.9c-7.8-13.2-19.2-23.1-34.5-26.9c-15.7-3.8-31.9-5-48-4.5c-7.4,0.2-15.3,0.7-22,3.5
			c-13,5.4-24.5,13.6-32.8,25.5c-0.2,0.2,0.2,0.9,0.5,1.8c2.2-1.2,4.2-2.3,6.3-3.5c0.1,0.6,0.2,0.8,0.2,0.9c-0.4,0.5-0.8,1-1.2,1.5
			c-9,9.1-17.5,18.5-20.2,31.6c-2,9.7-5.3,19.5-2,29.3c2.9,8.7,6.6,17.3,11,25.5c6.7,12.6,16.6,22.9,27,32.4
			c7.1,6.5,14.4,13,22.5,18c5.6,3.4,12.7,5.5,19.2,5.7c6.4,0.1,13-2.6,19.2-4.7c12.1-4,24.1-8.4,36.1-12.7
			C151,157.3,153.5,156.5,156,155.6z"/>
		<path d="M393.5,315.3c24.6,12.2,39.7,35.7,27.4,65.7c-6.4,15.5-18.8,24-33.2,30.6c-10.4,4.8-21,6.2-31-0.1
			c-8.1-5.1-12.1-13.7-14.3-22.6c-3.3-13.6-5-27.5-0.1-41.3c4.6-13,20-24.6,36.4-22.1c17.7,2.7,29.3,15.9,31,32.4
			c2.4,22.6-21,38.1-41.1,33.9c-1.9-0.4-4-0.7-5.8-1.4c-4.4-1.8-8.4-4.1-8.5-9.7c-0.3-14.3,4.5-26.6,15.9-35.3
			c6.1-4.7,13.6-3.1,20.3,0.1c6.2,2.9,9.5,8.2,9.9,15.1c0.3,6-3.6,9.5-8.6,10.8c-4.7,1.2-9.8,1.2-14.6,0.6c-3.9-0.5-6.4-3.8-5.8-8
			c0.5-3.5,1.5-7.1,3-10.3c1.9-4.1,6-5,10.7-3.3c4.3,1.6,7.2,6.1,6.5,10c-0.1,0.7-0.7,1.3-1.5,2.8c-0.3-2.6-0.1-4.4-0.6-6
			c-2.1-5.9-9.6-7.3-13-2.2c-2,3-2.8,7-3,10.7c-0.1,3.7,2.9,5.5,6.5,5.3c3.6-0.3,7.3-0.8,10.8-1.8c8.4-2.3,10.6-9.8,5.3-16.7
			c-7.5-9.8-22.9-10.2-30.2-0.3c-5.7,7.7-9.6,16.3-9.6,26.2c0.1,6.2,1.7,8.6,7.5,10.8c14.8,5.4,35.4-2.4,41.8-16.6
			c6.9-15.2,0.2-33-14-41.1c-17.3-9.8-37.1-2.5-45.7,13.5c-4.2,7.8-4.5,16.5-4.1,25.3c0.6,11.5,3,22.2,9.1,32.2
			c4.7,7.6,11.3,10.6,19.5,10.8c29.8,0.8,58.1-32.1,52.6-61.2c-3-16-13.6-26.4-26.6-34.9C395.2,316.6,394.3,315.9,393.5,315.3z"/>
		<path d="M341.4,404.2c-12.6-4.5-21.1-15.9-19.7-29.2c1.8-16.9,5.5-33.2,15-47.5c3.1-4.6,7.6-8.1,11.6-12.1
			c1.2-1.2,2.7-2.2,4.4-3.7c-9.1-1.7-23.9,9-29.5,31.7c0.6-12.8,6.1-23.2,16.9-30.2c19.3-12.5,51.4-10.2,68.2,2.9
			c3.6,2.8,7.1,6.2,9.5,10.1c7,11.5,14.1,22.9,15.9,36.7c1.2,9.6-2,18.2-6.5,26.1c-6.3,11.1-13,22-24.7,28.6
			c-12.5,7-25.4,6.2-38.5,2.8c-0.7-0.2-1.2-0.8-2.8-2c5.5,1,9.7,1.8,14,2.4c15.9,2.1,28.9-3.7,38.7-15.8c5.4-6.6,9.9-14.1,13.8-21.8
			c5.6-10.8,6.3-22.1,0.8-33.5c-5-10.1-9.3-20.5-17.3-28.9c-7.3-7.6-16.6-12.9-26.3-11.5c-6.5,1-12.8-0.6-19.2,0.7
			c-15.5,3.3-25.7,12.1-31.9,26.4c-5.3,12.1-8.5,24.8-9.7,37.9c-1,10.5,3.7,18.2,11.7,24.3c2.1,1.6,3.8,3.5,5.7,5.3L341.4,404.2z"/>
		<path d="M341.3,404.3c4.9,3.5,9.8,7.1,14.7,10.6c-0.4,0.5-0.8,1-1.3,1.5c-4.4-4.1-8.9-8.2-13.3-12.3
			C341.4,404.2,341.3,404.3,341.3,404.3z"/>
		<path fill="#FFFFFF" d="M260.3,157.7c17.6,0.5,32.6,7.2,46.6,17.2c14.4,10.3,26.7,22.6,34.9,38.3c4.4,8.3,7.2,17.5,10.8,26.2
			c1.3,3.3,0.2,5.5-2.7,7c-9.4,4.9-18.7,10-28.3,14.6c-4.9,2.4-10.2,4-15.4,5.7c-1.7,0.5-3.7-0.2-5.5,0.2c-3.4,0.7-6.7,2.1-10.1,2.6
			c-9,1.5-17.9,3.6-26.9,3.7c-10.7,0.2-21.4-1.3-32-2.3c-8.7-0.8-17.8-0.5-26-3c-10.8-3.3-21-8.8-31.3-13.7c-4.9-2.3-6.8-6.7-5.6-12
			c0.8-3.7,2-7.4,3.4-10.9c1.6-3.9,4.6-7.3,1.3-11.9c-0.7-1,0.2-3.7,1-5.2c4.5-8,8.9-16,13.8-23.7c12.6-19.8,33.3-25.7,54.3-30.6
			C248.4,158.8,254.4,158.5,260.3,157.7z M242.1,231.4c-0.6,0-1.2,0.1-1.7,0.1c0,11.3,0,22.6,0,33.9c0.6,0,1.2,0,1.7,0
			C242.1,254.1,242.1,242.7,242.1,231.4z M283.8,231.7c-2.6,6.8,2.6,25.2,7.2,29.1C288.6,251.1,286.2,241.4,283.8,231.7z
			 M271.6,260.9c2.7-6.2-0.1-23.6-4.4-27.7C268.6,242.6,270,251.2,271.6,260.9z M257.8,259.4c2.6-11.2,1.5-23-2-25.4
			C256.5,242.7,257.1,251,257.8,259.4z M213.5,258c0.7,0.1,1.3,0.2,2,0.3c1.3-7.8,2.5-15.6,3.8-23.5c-0.8-0.1-1.7-0.3-2.5-0.4
			C215.6,242.3,214.6,250.2,213.5,258z M230.9,234c-3.6,1.9-5.8,17.3-3,22.4C229,248.4,230,241.4,230.9,234z M296.9,232.7
			c-0.5,0.2-1,0.4-1.5,0.6c-0.2,6.2,4.3,17,7.6,17.8C300.9,244.8,298.9,238.7,296.9,232.7z"/>
		<path fill="#FFFFFF" d="M286.5,481.1c11.6,6.7,14.8-3.1,19.9-9.7c10.3,10.6,22.8,15.6,36.8,17.6c4.9,0.7,9.7,2.2,14.5,3.4
			c1.1,0.3,2.4,0.6,3.2,1.3c1.3,1.2,3.4,2.8,3.2,4c-0.3,1.7-2,4.4-3.4,4.6c-4.6,0.9-9.5,1.6-14.2,1c-7.4-0.9-14.6-3-22-4.3
			c-8-1.3-16.1-2.3-24.2-3.4C292.6,494.6,287.5,489.6,286.5,481.1z"/>
		<path fill="#FFFFFF" d="M167.5,498.2c22.8-9.7,46.4-14.4,67.7-25.9c2.7,2.1,6.2,4.9,10.5,8.3c-2.1,1.7-4.7,3.7-7.2,5.8
			c-9.4,7.8-20.7,11.9-31.9,15.7c-11.6,3.9-23.6,3.1-35.3-0.1C169.8,501.7,168.8,499.6,167.5,498.2z"/>
		<path fill="#FFFFFF" d="M99.5,252.3c2.9,0.6,5.4,1.1,8.4,1.7c-0.8-4.1-7.9-1.6-5.9-7.3c1.7-4.9,5-5.9,9.7-4.9
			c-1.4-1.1-2.9-2.2-4.9-3.7c2.1-3.3,4.2-6.6,6.2-9.7c1,0.1,1.5,0,1.9,0.2c7.4,3.7,7.2,3.7,3.5,11c-3,6.1-5.5,12.4-8.4,18.5
			c-1.3,2.8-3,5.4-4.6,8C96.8,264.8,94.7,259.9,99.5,252.3z"/>
		<path fill="#FFFFFF" d="M284.6,76c-2.2,1.9-4.9,3.2-5.7,5.2c-1.2,3.1,1.4,4.9,3.9,6.6c0.8,0.5,1,3.3,0.3,4.3
			c-1.1,1.7-3.1,2.8-4,3.6c-2.6-1.3-4.5-2.4-6.6-3.2c-5.5-2-9.1-7.6-8.1-12.8c1.3-7,5-10.7,10.7-10.2
			C279.7,69.9,282.9,72.4,284.6,76z"/>
		<path fill="#FFFFFF" d="M391.4,219.4c-8.3-6.2-8.4-6.8-1.8-16c9.3,10.5,21.4,19,23.5,34.6c-1.3-1.8-2.6-3.6-3.9-5.5
			c-1.4,1.8-3.1,4.1-4.9,6.4c-4.4-3.3-4.6-5.4-1.8-8.2c1.8-1.8,2.9-4.1,4.3-6.2c-0.5-0.3-1-0.6-1.5-1c-2.1,2.4-4.2,4.8-6.8,7.7
			c-1.6-3.5-3-6.4-4.6-9.9c1-2.2,2.3-5.1,3.6-8c-0.5-0.2-1-0.5-1.5-0.7C394.4,214.7,393,216.9,391.4,219.4z"/>
		<path fill="#FFFFFF" d="M408.9,262.6c-5.8,3.3-9.2,7.9-11.2,14c-1.1,3.2-4,5.7-7,9.8c-1.6-7.9-0.4-14.2,3.4-19.2
			c3.1-4.1,7.3-8.4,13.9-7.1c0.4-1.2,0.8-2.6,1.3-3.9c0.4-0.1,0.8-0.2,1-0.1c6.1,3.5,4.4,10.6,6.9,15.8c1.1,2.2,0.9,5.3,0.4,7.9
			c-0.4,1.7-2.3,3.1-3.5,4.6c-1.1-1.5-3-3-3.1-4.6c-0.3-2.7,0.9-5.6,0.9-8.4C411.9,268.1,412.7,264.5,408.9,262.6z"/>
		<path fill="#FFFFFF" d="M233.1,77.4c-1.6,2.2-4.5,4.6-4.1,6.1c0.9,3.6,3.4,6.7,5.7,10.9c-1.5,0.4-4.6,2.5-6.8,1.7
			c-10-3.7-13-7.3-11.5-14.1c0.8-3.5,3.3-7.2,6.1-9.4C225,70.7,231.1,74.4,233.1,77.4z"/>
		<path fill="#FFFFFF" d="M283,460c2.8,3.6,2.3,10.8,8.3,9.3c5.7-1.4,11-4.9,10.5-13.2c3.4,2.9,4.8,5,2.5,8.8
			c-2.2,3.7-2.9,8.4-5.2,12c-3.7,5.7-11.7,4.5-15.5-1.2C280.2,470.5,278.5,465.8,283,460z"/>
		<path fill="#FFFFFF" d="M236.5,427.5c4.1,0.8,7,1.7,9.8,1.7c2.7,0,5.4-0.9,8.5-1.5c-2.8,4.1-2.8,4.1-14.9,2.9
			c1.9,5.3,6.8,5.7,16.5,1.1c0.5,3.9,1.2,7.6,1.2,11.2c0,1.3-1.3,3-2.5,3.8c-4.9,3.3-13.4-0.1-15-5.9
			C238.9,436.4,237.7,432,236.5,427.5z"/>
		<path fill="#FFFFFF" d="M230.7,308c3.3,3.6,6.1,6.9,9.2,9.9c1.4,1.3,3.1,2.5,4.9,3.2c4.5,1.6,7,5.5,5.8,10.3
			c-0.2,0.9-2.3,2.1-3.5,2c-11.4-0.9-15.6-5.1-16.4-16.5C230.5,314.1,230.7,311.5,230.7,308z"/>
		<path fill="#FFFFFF" d="M94.9,317.3c-1-2.8-1.9-4.5-2.2-6.3c-0.5-3.3-0.4-6.7-1.2-9.9c-0.5-2-2-3.8-3-5.7
			c-2.6,1.5-5.9,2.3-7.5,4.5c-2.2,3.2-3,7.4-4.8,10.9c-0.7,1.4-2.6,2.1-3.9,3.1c-1-1.6-3.1-3.3-2.9-4.7c0.4-2.8,1.5-5.9,3.3-7.8
			c2.9-3.1,6.6-5.4,10.1-7.9c0.5-0.4,1.5-0.3,2.3-0.3c2.8,0,5.6,0,8.6,0C97.1,300.5,100.9,307.9,94.9,317.3z"/>
		<path fill="#FFFFFF" d="M285.2,382.8c4.1,0,7.6,0.3,11.1-0.1c3.4-0.4,4.8,1,4.8,4c0,4.1-0.1,8.3-0.6,12.4c-0.1,1.1-1.4,2.5-2.5,3
			c-0.9,0.3-2.7-0.3-3.3-1.1c-2-2.7-2.5-7-7.5-6.4c-0.3,0-1.2-1.9-1.3-3C285.5,388.4,285.3,385.3,285.2,382.8z"/>
		<path fill="#FFFFFF" d="M242.8,461.5c0.8-3.3,1.1-4.5,1.6-6.4c-1.7,1.2-2.8,2.1-4.9,3.6c-0.5-4-1-7.5-1.6-11.7
			c7,2,13.3,6.6,21.1,1.6c-0.2,3.5,0.6,9.1-1,9.9C254,460.6,248.9,460.5,242.8,461.5z"/>
		<path fill="#FFFFFF" d="M252.4,348c0.4,4.1,0.6,7,0.9,9.8c-13.7,3.2-20.3-1.4-20.2-14.2C239.5,345.2,244.3,353.3,252.4,348z"/>
		<path fill="#FFFFFF" d="M235.5,370.1c5.4,3.8,10.8,7.9,19,1.5c0,5,0.2,8.7-0.1,12.3c-0.1,0.9-1.7,2.1-2.7,2.3
			c-1.6,0.3-3.3,0-4.9-0.4C239.9,384.1,234.7,376.9,235.5,370.1z"/>
		<path fill="#FFFFFF" d="M79.1,285.7c-6.7,2.6-12.8,4.9-18.8,7.2c-2.3,0.9-4.8,2.3-6.4-1c-1.6-3.1,0-5.9,2.5-6.6
			c6.5-1.7,13.1-2.9,19.8-3.6C77.1,281.6,78.5,284.8,79.1,285.7z"/>
		<path fill="#FFFFFF" d="M284.7,343.3c5.3,0.6,10.2,1.2,15.6,1.9c0,3.8,0,8.5,0,13.1C289.9,358,284.1,351.9,284.7,343.3z"/>
		<path fill="#FFFFFF" d="M233.8,358.9c5.1,0.9,10,1.8,15,2.7c1.6,0.3,4.4,0.8,4.4,1.3c0.1,2.3,0.3,5.7-1.1,6.7
			c-2.2,1.6-5.8,2.8-8.4,2.3C238.1,370.7,234,364.4,233.8,358.9z"/>
		<path fill="#FFFFFF" d="M301.7,315c-0.5,3.4,0.1,8.7-1.7,9.8c-3.3,2-8.5,2.9-12.2,1.7c-5.8-1.9-4-7.8-4.1-13.1
			c5.7,2.7,10.9,8.4,16.6,0.4C300.7,314.2,301.2,314.6,301.7,315z"/>
		<path fill="#FFFFFF" d="M419.9,257c10.4,4.5,15.7,11.8,19.2,20.6c0.4,1.2-0.6,2.9-1,4.4c-1.6-0.6-3.9-0.6-4.7-1.8
			c-2.8-3.7-5.3-7.6-7.6-11.7C423.8,265.3,422.3,261.8,419.9,257z"/>
		<path fill="#FFFFFF" d="M233.1,339.6c-0.3-2.7-0.7-5.4-1-7.9c6.5,1.9,12.6,3.7,19.3,5.7c0.1,1.2,0.7,3.5,0.2,5.4
			c-1.1,4.3-6.7,5.3-10.2,1.9c-1.4-1.4-2.1-3.4-3.4-4.8c-0.7-0.8-2.2-0.9-3.3-1.3C234.1,338.9,233.6,339.3,233.1,339.6z"/>
		<path fill="#FFFFFF" d="M285.6,413.5c3.2,1.2,6,2.1,8.7,3.2c1.7,0.6,4.8,1.7,4.8,2.1c-0.5,2.9-1,6.4-2.8,8.4
			c-1.4,1.5-5,1.9-7.3,1.3c-1.3-0.3-2.3-3.3-2.7-5.3C285.7,420.2,285.8,417,285.6,413.5z"/>
		<path fill="#FFFFFF" d="M284.4,332c6.4,2.2,11.2-0.2,15.5-4.5c0.5,0.3,1.1,0.6,1.6,0.9c-0.8,4.1-0.8,8.7-2.8,12.1
			c-1,1.6-6.5,2-9,0.8C286.7,339.8,283.3,336.9,284.4,332z"/>
		<path fill="#FFFFFF" d="M254.3,389c0.2,1.8,0.4,3.5,0.6,5c-5.9,5.4-11.8,2.1-16.6-0.6c-2.3-1.3-2.5-6.4-3.8-10.1
			c7,2.5,12.8,4.6,18.6,6.7C253.5,389.7,253.9,389.4,254.3,389z"/>
		<path fill="#FFFFFF" d="M285.4,356c4.3,1.7,8.7,3.4,13,5.4c0.9,0.4,1.8,1.9,1.9,2.9c0.3,2.4,0.1,4.9,0.1,7.4
			C291.1,371.5,284,363.6,285.4,356z"/>
		<path fill="#FFFFFF" d="M300.5,406.6c-0.2,1.8-0.5,4.5-0.7,7.2c-9.6,1.4-15-4.4-14-15.1C290.4,401.3,294.9,403.7,300.5,406.6z"/>
		<path fill="#FFFFFF" d="M249.1,319.1c-7-0.3-13.4-7.4-13.5-15.1c4.1,1,8.2,1.8,12.2,3c0.6,0.2,1.3,1.5,1.3,2.4
			C249.2,312.6,249.1,315.8,249.1,319.1z"/>
		<path fill="#FFFFFF" d="M289.1,467.5c-1.6-4.2-3.2-8.4-5.4-14.3c5.3,0.7,9.2,1.1,13,1.6C298.8,461.7,297.6,463.9,289.1,467.5z"/>
		<path fill="#FFFFFF" d="M301.3,291.5c0,3,0,5.5,0,8.1c-10,2.5-18.4-3.3-17.5-12.1C289,291.1,294.3,294.7,301.3,291.5z"/>
		<path fill="#FFFFFF" d="M248.6,300.8c-0.3,0.3-1.1,2.7-2.4,3c-4,0.7-11.7-3.5-10.7-5.2c1.6-2.6,4.1-5.9,6.8-6.5
			C248,291,248.2,291.6,248.6,300.8z"/>
		<path fill="#FFFFFF" d="M133.9,205.1c7.3,7.6,7.3,7.6,3.5,10.7c-5.1,4.2-6.6,3.8-11.5-3.2c1.1-1.3,2.1-2.8,3.4-4.1
			C130.7,207.4,132.2,206.4,133.9,205.1z"/>
		<path fill="#FFFFFF" d="M123.5,215.1c2.7,2.2,4.8,3.9,7.2,5.9c-2.1,2.7-3.8,5.1-5.8,7.4c-2.7,3.1-4.8-0.1-6.9-1.1
			c-2.4-1.2-2.1-2.9-0.3-4.8C119.7,220.2,121.4,217.8,123.5,215.1z"/>
		<path fill="#FFFFFF" d="M381.9,209.9c-9.2-7.5-9.5-8.4-3.7-15.6C387.9,199.2,388,199.5,381.9,209.9z"/>
		<path fill="#FFFFFF" d="M285.8,368.7c4.4,2,9,3.7,13.2,6.1c1.2,0.7,1.3,3.2,2,5C288.1,380.7,284.3,377.6,285.8,368.7z"/>
		<path fill="#FFFFFF" d="M148.7,195.8c1.1,3.3,1.8,5.3,2.4,7.2c-2.8,2.5-5.4,4.8-8.8,7.8c-1.7-2.5-4.9-6.6-4.5-7
			C140.9,200.9,144.6,198.7,148.7,195.8z"/>
		<path fill="#FFFFFF" d="M94.9,264.3c10.8,6.2,11.2,4.1,5.4,13.4C90.2,273.5,90,273.1,94.9,264.3z"/>
		<path fill="#FFFFFF" d="M255.1,420.2c-0.3,3.3-5.6,6.7-10.5,6.2c-5.2-0.5-7.7-3.3-7.4-7.5C243,419.4,248.9,419.8,255.1,420.2z"/>
		<path fill="#FFFFFF" d="M355.6,183.3c12.6,4,10.4,3.4,6,12C353.3,193.6,352.3,191.7,355.6,183.3z"/>
		<path fill="#FFFFFF" d="M371.2,201.4c-8-4.1-8-4.1-3.4-12.8C376.5,191.4,376.5,191.5,371.2,201.4z"/>
		<path fill="#FFFFFF" d="M287.3,442.2c1.9,0.2,3.6,0.4,5.2,0.5c1.7,0.1,4.8,0,4.9,0.4c0.4,2.5,0.3,5.2-0.1,7.7
			c-0.1,0.6-2.5,1.5-3.2,1.1c-2.4-1.3-4.8-3-6.7-5C286.7,446.2,287.3,444.1,287.3,442.2z"/>
		<path fill="#FFFFFF" d="M85.6,275.5c0,3,0,5.9,0,9.5c1.4,0.2,3.6,0.4,5.8,0.8c0.8,0.1,1.6,0.5,2.4,0.8c-0.5,0.9-0.7,2.4-1.5,2.7
			c-1.8,0.8-4.9,2-5.7,1.2c-2.3-2.3-4.5-5.3-5.3-8.4c-0.5-2,1.4-4.6,2.2-7C84.2,275.2,84.9,275.4,85.6,275.5z"/>
		<path fill="#FFFFFF" d="M237.9,464.5c4.3,2.2,8.3,4.3,13.6,7c-1.8,1.7-3.4,4.5-5.1,4.6C241.2,476.3,237,470.1,237.9,464.5z"/>
		<path fill="#FFFFFF" d="M255.1,413.9c0,0.1-0.3,2.6-0.7,2.6c-4.2,0.2-8.6,0.7-12.5-0.4c-2.1-0.6-6.7-1.8-4.9-6
			C242.8,411.4,248.3,412.5,255.1,413.9z"/>
		<path fill="#FFFFFF" d="M284.4,308.3c5.3,0,10.3,0,16.1,0c-0.2,3.3-2.6,5.6-5.8,6.8C291.4,316.3,286.2,312.3,284.4,308.3z"/>
		<path fill="#FFFFFF" d="M161.2,190.7c1.1,7.2,1.1,7.3-7.1,10.6C150.2,195.8,152.2,192.9,161.2,190.7z"/>
		<path fill="#FFFFFF" d="M350.7,191.1c-7.5-1.1-7.8-1.6-5.6-9.5C353.4,181.9,353.5,182,350.7,191.1z"/>
		<path fill="#FFFFFF" d="M254.5,398.7c1.6,3.7-0.3,5.6-3.8,6.5c-3.8,1-6.5-1.4-7.7-6.5C246.5,398.7,250.2,398.7,254.5,398.7z"/>
		<path fill="#FFFFFF" d="M237.5,395.7c3.7,6.2,5.7,12.7,14.3,13c-5,2-9.2,0.9-12.4-1.7C235.9,404.2,236,401,237.5,395.7z"/>
		<path fill="#FFFFFF" d="M411.4,248.4c-6.6-4.3-7.1-6.3-3-11.2C415.2,241.6,415.3,242.2,411.4,248.4z"/>
		<path fill="#FFFFFF" d="M253.3,477.1c-1.7-6.6,3.9-8.7,6.1-13C262.6,470,261.2,473,253.3,477.1z"/>
		<path fill="#FFFFFF" d="M283.9,298.9c5.2,1.7,10.1,3.3,15.4,5.1c-3.6,3.2-7.5,3.2-11.5,1.2C285.3,304,282.6,302.4,283.9,298.9z"/>
		<path fill="#FFFFFF" d="M297.8,440c-3.4,0-6.8,0-10.5,0c-0.1-3-0.3-5.6-0.4-9c4.3,2.8,8,5.2,11.7,7.6
			C298.3,439.1,298.1,439.6,297.8,440z"/>
		<path fill="#FFFFFF" d="M325.3,179.9c6.7-0.9,8.2,0.2,8.9,5.6c0.1,0.9-0.4,2.7-0.9,2.8c-1.1,0.2-2.8,0-3.4-0.7
			C328.2,185.3,327,182.8,325.3,179.9z"/>
		<path fill="#FFFFFF" d="M416.2,244.4c3.1,6.5,3.1,6.5-2.4,11.1c-3.3-2.3-6.7-4.7-10.1-7.1C408.4,247.9,413.9,258.1,416.2,244.4z"
			/>
		<path fill="#FFFFFF" d="M336.6,180.3c6.1,0.6,6.1,0.6,4.5,9C336.8,189.3,336.7,189.1,336.6,180.3z"/>
		<path fill="#FFFFFF" d="M255.5,464c-3,5-9.8,4.3-13.3-1.3C246.6,463.1,250.9,463.5,255.5,464z"/>
		<path fill="#FFFFFF" d="M181.8,193.3c-1.8,3.5-3.6,6.9-5.4,10.5C172.4,200.6,173.7,197.3,181.8,193.3z"/>
		<path fill="#FFFFFF" d="M98.4,280.1c-6.2,4.1-8.6,2.8-8.8-4.1C92.9,277.6,95.7,278.9,98.4,280.1z"/>
		<path fill="#FFFFFF" d="M172.7,190c-2.6,2.9-4.5,4.9-7.6,8.3c-0.3-3.6-0.5-5.9-0.7-8.3C167.2,190,169.4,190,172.7,190z"/>
		<path fill="#FFFFFF" d="M289.9,285.2c3.1,0.4,6.3,0.8,9.8,1.3c-3,4.9-5.6,4.8-10,0.7C289.8,286.5,289.9,285.9,289.9,285.2z"/>
		<path fill="#FFFFFF" d="M324.2,186.1c-2.8-2.7-5.7-5.4-8.5-8.1c0.6-0.6,1.2-1.2,1.8-1.8c2.7,2.9,5.3,5.7,8,8.6
			C325,185.2,324.6,185.7,324.2,186.1z"/>
		<path fill="#FFFFFF" d="M302.7,278.5c-0.5,1.6-0.6,3.9-1.7,4.7c-1,0.8-3.2,0-4.8-0.1c-0.1-0.5-0.1-1.1-0.2-1.6
			c1.7-1.2,3.4-2.5,5.1-3.7C301.6,278.1,302.1,278.3,302.7,278.5z"/>
		<path d="M242.1,231.4c0,11.3,0,22.7,0,34c-0.6,0-1.2,0-1.7,0c0-11.3,0-22.6,0-33.9C240.9,231.5,241.5,231.4,242.1,231.4z"/>
		<path d="M283.8,231.7c2.4,9.7,4.8,19.4,7.2,29.1C286.5,257,281.2,238.5,283.8,231.7z"/>
		<path d="M271.6,260.9c-1.6-9.7-2.9-18.3-4.4-27.7C271.5,237.3,274.3,254.7,271.6,260.9z"/>
		<path d="M257.8,259.4c-0.6-8.3-1.3-16.7-2-25.4C259.2,236.3,260.3,248.2,257.8,259.4z"/>
		<path d="M213.5,258c1.1-7.8,2.1-15.7,3.2-23.5c0.8,0.1,1.7,0.3,2.5,0.4c-1.3,7.8-2.5,15.6-3.8,23.5
			C214.8,258.2,214.1,258.1,213.5,258z"/>
		<path d="M230.9,234c-1,7.4-1.9,14.4-3,22.4C225.2,251.3,227.3,235.9,230.9,234z"/>
		<path d="M296.9,232.7c2,6.1,4,12.1,6.1,18.3c-3.3-0.8-7.8-11.6-7.6-17.8C295.8,233.1,296.4,232.9,296.9,232.7z"/>
		<path d="M107.8,70.1c-4-5.4-8.6-6.8-14.3-4.8c-6.4,2.3-8.8,5.6-8.5,12.2c0.3,5.7,8.8,15.4,14.5,16.5c4.6,0.9,8.5-0.3,10.6-4.5
			c2.8-5.6,5.6-11.2,7.4-17.1c4.9-16.8-9.9-22-21.9-19.8c-17.2,3.1-30,25-20.8,42.8c5.8,11.3,12.3,22,22.8,29.8
			c10.1,7.5,17.8,7.6,28.1-3.3c9.8-10.3,14.8-22.5,15.2-36.3c0.9-23.8-8.2-40.3-33-48.3c-15.4-5-30.4-3.2-44,5.5
			c-9.7,6.2-17.1,14.9-20.5,26.1c-7.6,25.5-2.4,47,24.1,64.5c10.6,7,22.4,12.3,34.2,17.1c10.9,4.4,22.8,5,34.4,3.6
			c12.4-1.5,20.3-10.2,25.6-20.6c8.9-17.4,9.1-36.2,7-55.1c-3-27.5-18.9-46.3-41.8-59.7c-11.2-6.5-23.8-8.5-37-7.1
			C75.3,13,61.7,17.1,48.8,23.9c-1,0.5-2.2,0.6-3.3,0.9c-0.2-0.5-0.4-1-0.6-1.5c3.7-2,7.1-4.4,11-5.9c11.9-4.6,24.1-8.5,37-9.2
			c17.2-1,32.6,3.9,46.2,14.2c17.4,13.3,29.5,30.7,33,52.4c1.9,11.8,1.1,24.3-0.3,36.3c-0.9,8.4-3.7,17-7.6,24.5
			c-6.4,12.4-16.4,20.6-31.5,21.7c-23.1,1.6-43-6.6-62.1-18.1c-12.5-7.5-23.1-16.7-29.2-30.3c-4.7-10.4-6.3-21.6-4.4-32.2
			c2-11.4,8-22,16.9-30.2c16.4-15.2,35.6-19,56.4-11.7c27,9.4,37.5,30.8,33.2,58.3c-2.2,13.9-9.7,24.4-19.3,33.8
			c-8,7.8-16.6,8.4-25.7,2.4c-14.7-9.7-23.9-23.5-29.2-39.9c-3.7-11.5,0.1-21.3,8.3-29.8c9.2-9.6,19.9-13.2,32.5-8.6
			c11.1,4,15.4,17,9.5,27.2c-2.1,3.6-3.9,7.3-6,10.9c-5.1,8.7-14.4,11.2-21.1,4.4c-4.3-4.4-8.8-9.3-11.1-14.8
			c-1.2-2.9,1-8.4,3.3-11.5c4.2-5.6,12.9-7.2,18.6-4.6C106.7,63.9,107.7,65.4,107.8,70.1z"/>
	</g>
</g>
</svg>
